<mxfile host="www.draw.io" modified="2020-04-10T15:13:31.082Z" agent="5.0 (Macintosh; Intel Mac OS X 10_15_1) AppleWebKit/537.36 (KHTML, like Gecko) Chrome/80.0.3987.149 Safari/537.36" etag="ewpcCuosUz0P7Tavys3a" version="12.9.10" type="github" pages="2">
  <diagram id="gTkfbT7Cik_as-RmGfoY" name="01 - ev">
    <mxGraphModel dx="715" dy="352" grid="1" gridSize="10" guides="1" tooltips="1" connect="1" arrows="1" fold="1" page="1" pageScale="1" pageWidth="1920" pageHeight="1200" math="0" shadow="0">
      <root>
        <mxCell id="0" />
        <mxCell id="1" parent="0" />
        <mxCell id="pFvFEtRMXopv4cbzXGq3-12" style="edgeStyle=orthogonalEdgeStyle;rounded=0;orthogonalLoop=1;jettySize=auto;html=1;exitX=1;exitY=0.5;exitDx=0;exitDy=0;fontSize=16;" edge="1" parent="1">
          <mxGeometry relative="1" as="geometry">
            <mxPoint x="740" y="449.86" as="targetPoint" />
            <mxPoint x="960" y="449.76476190476194" as="sourcePoint" />
            <Array as="points">
              <mxPoint x="910" y="449.86" />
              <mxPoint x="910" y="449.86" />
            </Array>
          </mxGeometry>
        </mxCell>
        <mxCell id="pFvFEtRMXopv4cbzXGq3-1" value="Tickets Service" style="rounded=0;whiteSpace=wrap;html=1;fillColor=#f5f5f5;strokeColor=#666666;fontColor=#333333;fontStyle=1;fontSize=16;" vertex="1" parent="1">
          <mxGeometry x="590" y="270" width="150" height="30" as="geometry" />
        </mxCell>
        <mxCell id="pFvFEtRMXopv4cbzXGq3-10" style="edgeStyle=orthogonalEdgeStyle;rounded=0;orthogonalLoop=1;jettySize=auto;html=1;exitX=1;exitY=0.5;exitDx=0;exitDy=0;fontSize=16;" edge="1" parent="1" source="pFvFEtRMXopv4cbzXGq3-2">
          <mxGeometry relative="1" as="geometry">
            <mxPoint x="960" y="329.9047619047619" as="targetPoint" />
          </mxGeometry>
        </mxCell>
        <mxCell id="pFvFEtRMXopv4cbzXGq3-2" value="" style="rounded=0;whiteSpace=wrap;html=1;fillColor=#f5f5f5;strokeColor=#666666;fontColor=#333333;" vertex="1" parent="1">
          <mxGeometry x="590" y="300" width="150" height="60" as="geometry" />
        </mxCell>
        <mxCell id="pFvFEtRMXopv4cbzXGq3-3" value="Event Bus" style="rounded=0;whiteSpace=wrap;html=1;fillColor=#f5f5f5;strokeColor=#666666;fontColor=#333333;fontStyle=1;fontSize=16;" vertex="1" parent="1">
          <mxGeometry x="960" y="270" width="150" height="30" as="geometry" />
        </mxCell>
        <mxCell id="pFvFEtRMXopv4cbzXGq3-4" value="" style="rounded=0;whiteSpace=wrap;html=1;fillColor=#f5f5f5;strokeColor=#666666;fontColor=#333333;" vertex="1" parent="1">
          <mxGeometry x="960" y="300" width="150" height="250" as="geometry" />
        </mxCell>
        <mxCell id="pFvFEtRMXopv4cbzXGq3-5" value="Orders Service" style="rounded=0;whiteSpace=wrap;html=1;fillColor=#f5f5f5;strokeColor=#666666;fontColor=#333333;fontStyle=1;fontSize=16;" vertex="1" parent="1">
          <mxGeometry x="590" y="390" width="150" height="30" as="geometry" />
        </mxCell>
        <mxCell id="pFvFEtRMXopv4cbzXGq3-6" value="" style="rounded=0;whiteSpace=wrap;html=1;fillColor=#f5f5f5;strokeColor=#666666;fontColor=#333333;" vertex="1" parent="1">
          <mxGeometry x="590" y="420" width="150" height="60" as="geometry" />
        </mxCell>
        <mxCell id="pFvFEtRMXopv4cbzXGq3-8" style="edgeStyle=orthogonalEdgeStyle;rounded=0;orthogonalLoop=1;jettySize=auto;html=1;exitX=1;exitY=0.5;exitDx=0;exitDy=0;fontSize=16;" edge="1" parent="1" source="pFvFEtRMXopv4cbzXGq3-7" target="pFvFEtRMXopv4cbzXGq3-2">
          <mxGeometry relative="1" as="geometry" />
        </mxCell>
        <mxCell id="pFvFEtRMXopv4cbzXGq3-7" value="Request to Create a Ticket" style="rounded=0;whiteSpace=wrap;html=1;fontSize=16;fillColor=#dae8fc;strokeColor=#6c8ebf;fontStyle=1" vertex="1" parent="1">
          <mxGeometry x="440" y="295" width="90" height="70" as="geometry" />
        </mxCell>
        <mxCell id="pFvFEtRMXopv4cbzXGq3-9" value="Ticket Created Event" style="rounded=0;whiteSpace=wrap;html=1;fontSize=14;fillColor=#f8cecc;strokeColor=#b85450;fontStyle=1" vertex="1" parent="1">
          <mxGeometry x="780" y="300" width="150" height="30" as="geometry" />
        </mxCell>
      </root>
    </mxGraphModel>
  </diagram>
  <diagram name="02 - ev" id="ycW3E8-1oFTaukPKohWB">
    <mxGraphModel dx="791" dy="389" grid="1" gridSize="10" guides="1" tooltips="1" connect="1" arrows="1" fold="1" page="1" pageScale="1" pageWidth="1920" pageHeight="1200" math="0" shadow="0">
      <root>
        <mxCell id="UXfegDrSkT8HTIjYpNdI-0" />
        <mxCell id="UXfegDrSkT8HTIjYpNdI-1" parent="UXfegDrSkT8HTIjYpNdI-0" />
        <mxCell id="UXfegDrSkT8HTIjYpNdI-2" style="edgeStyle=orthogonalEdgeStyle;rounded=0;orthogonalLoop=1;jettySize=auto;html=1;exitX=1;exitY=0.5;exitDx=0;exitDy=0;fontSize=16;" edge="1" parent="UXfegDrSkT8HTIjYpNdI-1">
          <mxGeometry relative="1" as="geometry">
            <mxPoint x="740" y="449.86" as="targetPoint" />
            <mxPoint x="960" y="449.76476190476194" as="sourcePoint" />
            <Array as="points">
              <mxPoint x="910" y="449.86" />
              <mxPoint x="910" y="449.86" />
            </Array>
          </mxGeometry>
        </mxCell>
        <mxCell id="UXfegDrSkT8HTIjYpNdI-3" value="Tickets Service" style="rounded=0;whiteSpace=wrap;html=1;fillColor=#f5f5f5;strokeColor=#666666;fontColor=#333333;fontStyle=1;fontSize=16;" vertex="1" parent="UXfegDrSkT8HTIjYpNdI-1">
          <mxGeometry x="590" y="270" width="150" height="30" as="geometry" />
        </mxCell>
        <mxCell id="UXfegDrSkT8HTIjYpNdI-4" style="edgeStyle=orthogonalEdgeStyle;rounded=0;orthogonalLoop=1;jettySize=auto;html=1;exitX=1;exitY=0.5;exitDx=0;exitDy=0;fontSize=16;" edge="1" parent="UXfegDrSkT8HTIjYpNdI-1" source="UXfegDrSkT8HTIjYpNdI-5">
          <mxGeometry relative="1" as="geometry">
            <mxPoint x="960" y="329.9047619047619" as="targetPoint" />
          </mxGeometry>
        </mxCell>
        <mxCell id="UXfegDrSkT8HTIjYpNdI-5" value="" style="rounded=0;whiteSpace=wrap;html=1;fillColor=#f5f5f5;strokeColor=#666666;fontColor=#333333;" vertex="1" parent="UXfegDrSkT8HTIjYpNdI-1">
          <mxGeometry x="590" y="300" width="150" height="60" as="geometry" />
        </mxCell>
        <mxCell id="UXfegDrSkT8HTIjYpNdI-6" value="Event Bus" style="rounded=0;whiteSpace=wrap;html=1;fillColor=#f5f5f5;strokeColor=#666666;fontColor=#333333;fontStyle=1;fontSize=16;" vertex="1" parent="UXfegDrSkT8HTIjYpNdI-1">
          <mxGeometry x="960" y="270" width="150" height="30" as="geometry" />
        </mxCell>
        <mxCell id="UXfegDrSkT8HTIjYpNdI-7" value="" style="rounded=0;whiteSpace=wrap;html=1;fillColor=#f5f5f5;strokeColor=#666666;fontColor=#333333;" vertex="1" parent="UXfegDrSkT8HTIjYpNdI-1">
          <mxGeometry x="960" y="300" width="150" height="250" as="geometry" />
        </mxCell>
        <mxCell id="UXfegDrSkT8HTIjYpNdI-8" value="Orders Service" style="rounded=0;whiteSpace=wrap;html=1;fillColor=#f5f5f5;strokeColor=#666666;fontColor=#333333;fontStyle=1;fontSize=16;" vertex="1" parent="UXfegDrSkT8HTIjYpNdI-1">
          <mxGeometry x="590" y="390" width="150" height="30" as="geometry" />
        </mxCell>
        <mxCell id="UXfegDrSkT8HTIjYpNdI-9" value="" style="rounded=0;whiteSpace=wrap;html=1;fillColor=#f5f5f5;strokeColor=#666666;fontColor=#333333;" vertex="1" parent="UXfegDrSkT8HTIjYpNdI-1">
          <mxGeometry x="590" y="420" width="150" height="60" as="geometry" />
        </mxCell>
        <mxCell id="UXfegDrSkT8HTIjYpNdI-10" style="edgeStyle=orthogonalEdgeStyle;rounded=0;orthogonalLoop=1;jettySize=auto;html=1;exitX=1;exitY=0.5;exitDx=0;exitDy=0;fontSize=16;" edge="1" parent="UXfegDrSkT8HTIjYpNdI-1" source="UXfegDrSkT8HTIjYpNdI-11" target="UXfegDrSkT8HTIjYpNdI-5">
          <mxGeometry relative="1" as="geometry" />
        </mxCell>
        <mxCell id="UXfegDrSkT8HTIjYpNdI-11" value="Request to Update a Ticket" style="rounded=0;whiteSpace=wrap;html=1;fontSize=16;fillColor=#d5e8d4;strokeColor=#82b366;fontStyle=1" vertex="1" parent="UXfegDrSkT8HTIjYpNdI-1">
          <mxGeometry x="440" y="295" width="90" height="70" as="geometry" />
        </mxCell>
        <mxCell id="UXfegDrSkT8HTIjYpNdI-12" value="Ticket Updated Event" style="rounded=0;whiteSpace=wrap;html=1;fontSize=14;fillColor=#f8cecc;strokeColor=#b85450;fontStyle=1" vertex="1" parent="UXfegDrSkT8HTIjYpNdI-1">
          <mxGeometry x="780" y="300" width="150" height="30" as="geometry" />
        </mxCell>
      </root>
    </mxGraphModel>
  </diagram>
</mxfile>
